# xmcd
#
# Track frame offsets: 
#        150
#        15327
#        41502
#
# Disc length: 996 seconds
#
# Revision: 0
# Processed by: cddbd v1.5.2PL0 Copyright (c) Steve Scherf et al.
# Submitted via: ExactAudioCopyFreeDBPlugin 1.0
#
DISCID=1503e203
DTITLE=Bob Marley - Sun Is Shining (The Remixes)
DYEAR=1999
DGENRE=House
TTITLE0=Sun Is Shining (The Island Mix - Radio Edit)
TTITLE1=Sun Is Shining (Messy Boys Remix)
TTITLE2=Sun Is Shining (The Island Mix - Extended Version)
EXTD=
EXTT0=
EXTT1=
EXTT2=
PLAYORDER=
